<svg version="1.0" xmlns="http://www.w3.org/2000/svg" width="38.000000pt" height="38.000000pt" viewBox="0 0 172.000000 172.000000" preserveAspectRatio="xMidYMid meet" id="logo" class="svg replaced-svg">
    <metadata>
        Created by Docfx
    </metadata>
    <g transform="translate(27.000000,27.00000) scale(3 3)" fill="#dddddd" stroke="none">
        <path class="cls-1" d="M33.22,02.69l-.3.56-1.67,3a21.23,21.23,0,0,0-1.6,3.94l0,.12-.24-.17-.08-.32a7.24,7.24,0,0,0-2-3.89,6.23,6.23,0,0,0-4-1.08c-.73,0-1.47,0-2.21.1h-.3V31.55l2.91,2.68H12.39l3.44-2.87V6.89l-1.74,0a5.28,5.28,0,0,0-3.61,1,5.3,5.3,0,0,0-1.26,3.51H8.58a6.11,6.11,0,0,1,1.49-4,5.83,5.83,0,0,1,4-1.13l1.47,0h.27V5.05a20,20,0,0,0-2.38-.15c-2.12,0-3.64.43-4.58,1.29S7.42,8.51,7.32,10.56H7A46.76,46.76,0,0,0,3.76,2.93l-.15-.24Zm-5,5.38a8,8,0,0,0-4.43-1.23,9.88,9.88,0,0,0-1.18.08l.1,24.71,3.91,4.62H14l-.57-.66H25.25L22,31.83V6.2l1.33,0a10.59,10.59,0,0,1,3.38.38A2.8,2.8,0,0,1,28.2,8.07Zm6.56-3.83a27.92,27.92,0,0,0-3.56,7.18l-.1.24-.54-.46.07-.23a24.28,24.28,0,0,1,3.52-7.08l.12-.15Z"></path>
    </g>
</svg>